# xmcd CD database file
#
# Track frame offsets:
#	150
#	17330
#	37612
#	51184
#	64734
#	86212
#	102717
#	118896
#	133467
#	150676
#	168895
#	185697
#	197178
#
# Disc length: 2776 seconds
#
# Revision: 0
# Processed by: cddbd v1.5.2PL0 Copyright (c) Steve Scherf et al.
# Submitted via: CDex 1.51
#
DISCID=b60ad60d
DTITLE=California Cowboys - Gold
DYEAR=2008
DGENRE=Country
TTITLE0=She Knows - R.W.Smith - E. Moore
TTITLE1=Party's Over - R.W.Smith - Tackett
TTITLE2=Mind Of It's Own - R.W.Smith - E. Moore
TTITLE3=Roll The Dice - R.W.Smith - E. Moore
TTITLE4=Whiskey Dreams - R.W.Smith
TTITLE5=Weatherman - R.W.Smith - Sesskin
TTITLE6=Cook It Up - R.W.Smith - E. Moore
TTITLE7=Whiskey Drinkin' Man - R.W.Smith - H. Paul
TTITLE8=Let Go Of My Heart - R.W.Smith 
TTITLE9=Timberline - R.W.Smith 
TTITLE10=I Think I'm In Love - R.W.Smith 
TTITLE11=Drive A Truck - R.W.Smith - E. Moore
TTITLE12=Clean House - R.W.Smith 
EXTD=YEAR: 2008
EXTT0=
EXTT1=
EXTT2=
EXTT3=
EXTT4=
EXTT5=
EXTT6=
EXTT7=
EXTT8=
EXTT9=
EXTT10=
EXTT11=
EXTT12=
PLAYORDER=
